<svg version="1.1" id="Layer_1" xmlns="http://www.w3.org/2000/svg" xmlns:xlink="http://www.w3.org/1999/xlink" x="0px" y="0px"
	 width="100%" viewBox="0 0 1024 1024" enable-background="new 0 0 1024 1024" xml:space="preserve">
<path fill="#000000" opacity="1.000000" stroke="none" 
	d="
M843.779968,176.219757 
	C908.196960,240.793228 950.878540,317.188232 972.239807,405.440643 
	C979.416016,435.088562 983.239868,465.219757 984.455505,495.752808 
	C987.782227,579.310974 969.830322,658.121216 931.820984,732.354919 
	C903.952576,786.782715 866.664490,834.008728 820.665405,874.377441 
	C769.186096,919.555664 710.827454,952.302185 645.223083,972.020386 
	C614.856628,981.147461 583.866699,986.923279 552.217834,989.495728 
	C528.913269,991.390076 505.643738,991.909363 482.349640,990.182617 
	C451.269867,987.878662 420.643433,982.915955 390.531250,974.643616 
	C314.908569,953.868774 249.003082,916.017517 192.241623,862.139282 
	C135.143616,807.941467 93.313568,743.768860 67.560089,669.281189 
	C56.161858,636.313660 48.736210,602.451782 44.499252,567.805908 
	C41.474506,543.072510 40.795242,518.270386 41.899078,493.499207 
	C44.516697,434.756927 57.392925,378.293701 81.079117,324.320435 
	C100.241402,280.655670 125.103104,240.590652 156.151291,204.478928 
	C205.516907,147.062378 264.796631,102.952011 334.785858,73.670998 
	C370.096832,58.898117 406.810120,49.043724 444.719086,43.550514 
	C471.479523,39.672787 498.358063,38.031239 525.356018,38.765636 
	C602.331543,40.859524 674.557434,60.346725 741.663635,98.350037 
	C779.156311,119.582726 813.067505,145.512222 843.779968,176.219757 
M854.181274,275.732544 
	C855.307434,269.693909 856.358765,263.639923 857.589722,257.622711 
	C858.259033,254.350937 860.764709,252.922943 863.830139,252.922821 
	C867.028259,252.922699 869.128174,254.899231 869.869141,257.946838 
	C870.250793,259.516754 870.216309,261.264252 870.014221,262.887238 
	C868.818909,272.485657 866.712524,281.892456 863.526733,291.028473 
	C855.753357,313.320068 844.396729,333.182159 824.790100,347.327789 
	C801.126038,364.400787 774.646851,367.260742 746.662659,362.883850 
	C732.060181,360.599915 717.728638,356.837402 702.852783,355.985626 
	C665.607971,353.852966 638.089539,374.667542 621.944153,404.400085 
	C621.248718,405.680939 620.159607,407.107300 620.940613,408.607635 
	C624.576111,415.591370 628.155640,422.602051 631.194214,431.062347 
	C636.343750,423.484222 640.618286,416.926453 645.787842,411.073242 
	C670.213074,383.417816 703.734253,368.461578 744.116333,384.327942 
	C752.791504,387.736481 761.589478,390.847229 770.632141,393.178040 
	C797.315308,400.055756 820.391113,393.875610 839.475464,373.843292 
	C844.757446,368.299011 849.718079,362.437988 854.658447,356.580811 
	C869.077942,339.485504 887.401978,330.303406 909.721497,328.985809 
	C915.261475,328.658783 919.019836,331.127258 919.187622,335.502472 
	C919.347839,339.679230 916.315063,342.068512 910.635071,342.353546 
	C894.146545,343.180969 879.776978,348.801636 868.488037,361.221252 
	C864.231384,365.904327 859.980347,370.602448 855.940491,375.471100 
	C831.947449,404.386688 802.193604,416.022186 765.271240,405.400269 
	C753.612183,402.046173 742.313293,397.453308 730.689331,393.960602 
	C713.840332,388.897827 697.404419,390.374115 681.800110,398.702820 
	C660.554871,410.042297 647.102722,428.364258 636.963013,449.510040 
	C635.434204,452.698151 636.122620,456.148590 637.631775,460.068146 
	C639.328369,457.885193 640.579834,456.351074 641.749695,454.757080 
	C648.714478,445.267548 657.033691,437.135712 666.628052,430.357941 
	C682.602051,419.073273 700.070129,413.671631 719.838013,416.563416 
	C733.339844,418.538574 745.153870,424.623108 756.973267,430.747375 
	C780.547424,442.962372 805.526428,445.574493 831.295898,441.263428 
	C866.768616,435.329102 897.527344,419.617554 923.770020,395.035492 
	C924.979431,393.902557 926.221191,392.707367 927.659790,391.936859 
	C930.300598,390.522522 932.905212,390.992828 934.959900,393.163055 
	C937.140381,395.466187 937.638794,398.183197 935.751160,400.895355 
	C934.714966,402.384186 933.363525,403.674866 932.048401,404.945251 
	C907.350159,428.803864 877.983643,444.158356 844.759766,452.131348 
	C816.565186,458.897369 788.601013,458.415131 761.465942,447.149139 
	C752.248596,443.322266 743.462158,438.470276 734.326782,434.430603 
	C714.519897,425.672119 695.425110,427.209045 677.277100,439.103302 
	C658.414368,451.465912 645.879333,469.128571 636.077759,488.962158 
	C631.948730,497.317474 628.652588,506.093842 624.352966,514.353577 
	C614.297546,533.670410 598.878967,548.432129 582.247864,561.942566 
	C568.229492,573.330444 554.875916,585.223511 544.365356,600.111084 
	C528.145264,623.085999 520.918945,648.771790 520.510437,676.602478 
	C520.349915,687.538696 520.484192,698.479126 520.484192,710.817139 
	C522.775085,708.109131 524.219910,706.396301 525.670349,704.688293 
	C526.964905,703.163818 528.178528,701.456665 530.170166,700.847839 
	C532.728394,700.065857 535.251526,700.347717 536.974182,702.606689 
	C539.037842,705.312866 538.965027,708.353027 536.895813,710.936951 
	C531.066101,718.216492 525.189148,725.468384 519.053101,732.488403 
	C515.778503,736.234802 512.287598,736.108765 508.778442,732.126404 
	C502.833313,725.379456 497.154968,718.393188 491.488403,711.406982 
	C488.981354,708.316162 488.690582,704.946960 491.793243,702.021362 
	C494.390137,699.572510 498.599304,700.287598 501.505859,703.440002 
	C503.353088,705.443420 505.168823,707.475952 507.659027,710.224243 
	C507.659027,697.211487 507.872009,685.384033 507.616974,673.566650 
	C506.987152,644.386169 498.292084,618.002441 480.146454,594.853333 
	C469.663483,581.479797 456.766907,570.737915 443.810760,559.970459 
	C423.978058,543.488098 407.388123,524.602417 397.297729,500.280853 
	C388.600952,479.318542 376.142792,460.648956 358.755035,445.587097 
	C337.486969,427.164032 312.289734,424.016907 287.320770,436.850525 
	C280.061218,440.581818 272.910980,444.570648 265.458954,447.873566 
	C247.797226,455.701843 229.656830,458.136536 211.135330,450.951233 
	C199.977325,446.622528 190.548187,439.389801 181.164993,432.167816 
	C168.728973,422.596283 155.486282,414.910950 139.450592,413.205139 
	C135.510223,412.785980 133.072632,413.714050 131.026077,417.467102 
	C127.232155,424.424438 120.708885,427.770844 112.940590,428.230988 
	C101.944153,428.882263 92.172569,421.238342 89.962524,410.652435 
	C87.574661,399.214813 93.736809,388.527466 104.995773,384.579498 
	C115.079056,381.043793 126.822647,385.601318 131.795502,395.393799 
	C133.354858,398.464417 135.123627,399.575500 138.545990,399.938507 
	C150.051239,401.158813 161.006851,404.368896 171.323029,409.836334 
	C182.302994,415.655609 191.669434,423.721405 201.668076,430.903198 
	C218.147659,442.740112 235.854126,444.654907 254.764313,437.978943 
	C264.715942,434.465637 273.562836,428.682831 283.082092,424.281403 
	C296.436371,418.106781 310.183167,414.197937 325.131592,416.200104 
	C346.714874,419.090912 363.702240,430.089966 377.944092,445.933319 
	C382.319611,450.800842 386.431519,455.905396 391.556793,461.955048 
	C391.491272,456.513245 392.505585,452.504730 390.480408,448.485229 
	C383.827026,435.279724 375.521057,423.241516 364.930054,412.923004 
	C355.492523,403.728241 344.552887,396.864716 331.727844,393.275665 
	C315.708221,388.792572 300.406525,391.912323 285.324738,397.557526 
	C275.496338,401.236328 265.647522,405.080017 255.144302,406.098206 
	C250.184662,406.579010 247.069687,408.157532 244.419067,412.540863 
	C239.461624,420.738983 229.147507,424.071442 219.899734,421.331146 
	C210.480759,418.540070 203.799286,409.830353 203.700989,400.214996 
	C203.596725,390.018158 210.823608,380.583649 220.659760,378.075684 
	C230.531357,375.558685 241.021622,380.119019 245.906326,389.664886 
	C247.723175,393.215454 249.577728,393.781036 253.311981,393.160461 
	C263.578522,391.454376 273.272644,387.984985 282.972748,384.479675 
	C293.368073,380.723145 303.988495,377.620361 315.075104,377.812103 
	C343.568604,378.304810 365.419769,391.986023 383.305267,413.187958 
	C388.077911,418.845551 391.876373,425.232513 396.508789,431.648926 
	C400.222778,423.998413 403.528961,417.125977 406.904419,410.287750 
	C407.569244,408.940948 407.469391,407.808502 406.773956,406.527069 
	C396.681305,387.929993 383.369690,372.520691 363.835724,363.339386 
	C344.220459,354.119965 323.872833,354.585449 303.215790,358.826721 
	C285.941681,362.373383 268.691620,365.914581 250.822464,364.449493 
	C212.129532,361.277069 186.042816,340.768524 170.303421,306.144897 
	C168.589859,302.375397 166.689713,300.494049 162.781799,299.420135 
	C153.233887,296.796265 146.520355,287.213593 146.926132,277.635529 
	C147.377792,266.974030 154.620605,258.446045 165.239731,256.072357 
	C174.404633,254.023758 184.559921,258.907990 189.211700,267.601807 
	C194.038345,276.622437 192.153931,287.884430 184.223083,294.916992 
	C181.775146,297.087708 181.408371,298.772430 182.637238,301.720947 
	C195.179108,331.814240 224.444748,351.478607 257.108795,351.678711 
	C271.526154,351.767059 285.561523,349.080017 299.579834,346.161621 
	C315.482666,342.850891 331.455811,340.984772 347.616486,344.256714 
	C372.992981,349.394562 392.862640,362.988403 408.031158,383.747589 
	C410.834473,387.584045 413.554871,391.481079 416.310791,395.346313 
	C419.213654,392.581696 421.787476,390.245270 424.232758,387.781311 
	C433.493134,378.450195 433.481659,378.432770 427.751465,366.647003 
	C420.442810,351.614777 410.552155,339.021545 395.293518,331.180237 
	C379.025940,322.820404 361.634369,322.629333 344.077362,323.705200 
	C315.542328,325.453827 289.805817,319.196869 269.021210,298.234894 
	C257.396332,286.510834 249.296753,272.719025 245.057968,256.751221 
	C243.729706,251.747528 245.640457,248.210785 249.683487,247.170258 
	C253.436630,246.204346 256.173401,248.309692 257.703094,253.341782 
	C257.896759,253.978943 258.086700,254.617325 258.270416,255.257431 
	C267.704010,288.128418 297.259277,310.449280 331.320160,310.755066 
	C342.476685,310.855225 353.609650,310.221466 364.780273,310.553589 
	C396.145813,311.486267 419.239899,325.842926 435.130280,352.552734 
	C438.508881,358.231720 441.030701,364.352203 444.135651,370.666687 
	C451.956970,365.788239 459.553680,361.828247 467.679840,358.326263 
	C466.233673,354.004333 465.084106,350.188904 463.690857,346.464661 
	C452.224365,315.814575 431.232422,296.082916 398.370850,290.681366 
	C384.112640,288.337708 369.642212,287.317871 355.313995,285.361176 
	C324.664001,281.175568 299.607483,266.986572 280.698181,242.437531 
	C263.080688,219.565628 253.516800,193.773758 253.682861,164.673111 
	C253.714523,159.123184 255.914948,156.435303 260.166260,156.452866 
	C264.312744,156.470001 266.265869,158.914749 266.471436,164.241074 
	C267.040466,178.984573 269.355865,193.397507 275.361023,206.981567 
	C288.804199,237.390839 309.696869,259.811005 342.556549,269.413513 
	C359.488556,274.361511 377.053528,274.499329 394.350739,276.690887 
	C417.539612,279.628967 438.033813,288.307831 454.286987,305.581635 
	C466.295898,318.344635 473.769379,333.728516 478.924866,350.270416 
	C480.001312,353.724335 481.486359,354.295288 484.616180,353.535339 
	C489.134613,352.438171 493.697723,351.412689 498.301422,350.820068 
	C501.172211,350.450562 502.106384,349.218414 501.717041,346.592651 
	C501.035156,341.993713 500.643829,337.323364 499.575775,332.814392 
	C490.715485,295.408630 469.281586,269.705383 431.105927,259.718842 
	C418.811981,256.502808 406.130280,256.011230 393.615936,254.342346 
	C379.772186,252.496216 366.533997,248.918579 354.949524,240.682938 
	C338.956543,229.313217 330.834259,213.083450 326.701569,194.490234 
	C325.882294,190.804230 324.519836,188.570663 320.634644,187.048676 
	C310.295471,182.998474 305.074646,170.726196 308.471375,160.043594 
	C311.466003,150.625595 320.044312,144.284821 329.903351,144.201843 
	C339.178223,144.123779 348.225433,150.515274 350.973450,159.087082 
	C354.275543,169.386963 351.281464,179.192322 342.641541,185.128799 
	C339.928772,186.992722 338.756073,188.901138 339.527924,192.144806 
	C345.478455,217.152176 359.655365,234.034439 385.624634,239.792801 
	C398.031311,242.543839 410.697784,242.861984 423.201416,244.635590 
	C425.663818,244.984848 428.198730,246.344254 431.140015,245.100327 
	C430.597137,244.045227 430.307861,243.279465 429.853424,242.629166 
	C415.409607,221.960724 407.076202,199.070938 405.095978,173.936142 
	C404.811401,170.324432 403.812347,167.990570 400.453308,165.985779 
	C386.281128,157.527344 385.650269,138.560150 399.016571,128.780380 
	C400.811737,127.466904 402.656799,126.219894 402.941925,123.876755 
	C404.514496,110.953453 413.451416,100.022842 412.958496,86.511833 
	C412.858551,83.772537 414.271393,82.050499 417.505707,83.501884 
	C418.614136,83.999283 420.267975,85.146355 421.090149,83.565887 
	C422.959961,79.971519 425.631012,81.700119 427.995087,82.302071 
	C456.157867,89.473030 484.690796,93.768059 513.814941,93.747765 
	C522.377930,93.741798 530.062927,97.495651 538.202881,99.102478 
	C537.998901,102.057800 535.063538,102.805954 535.090576,105.678734 
	C543.659973,101.711639 551.720215,104.275291 559.798950,106.488510 
	C562.304871,114.405495 571.355408,120.075775 567.554565,129.890167 
	C569.847412,131.390213 571.330139,129.944458 572.874390,129.131149 
	C578.746399,126.038506 580.321289,117.680649 587.999695,116.733459 
	C588.283691,116.698425 588.595398,115.938812 588.691833,115.474815 
	C590.054810,108.913261 594.726929,106.432556 600.751648,105.261955 
	C604.910461,104.453903 607.496094,101.862747 607.845398,97.374336 
	C607.934265,96.232384 608.394287,95.112144 608.737854,93.998604 
	C609.555176,91.349602 610.617981,88.911774 613.959351,88.807076 
	C616.972900,88.712654 618.562927,90.591606 619.355347,93.131729 
	C620.401428,96.485023 624.632874,98.497215 623.962830,102.246506 
	C623.316162,105.864731 619.264160,107.201210 616.996155,109.820137 
	C614.585083,112.604248 613.156067,115.402290 616.131531,118.613396 
	C618.322998,120.978470 617.804932,122.897751 615.132690,124.156868 
	C607.880432,127.573936 604.137878,133.522507 603.073547,141.148972 
	C602.491516,145.319214 599.100342,149.376190 601.357727,153.589432 
	C603.845825,158.233505 602.859802,161.787140 599.619080,165.329590 
	C597.372559,167.785278 595.020264,170.180267 593.058533,172.854233 
	C584.820862,184.082535 577.671631,184.584061 588.904236,201.725037 
	C590.073181,203.508835 590.663025,205.672791 591.515869,207.662796 
	C592.752747,210.548615 592.621765,213.592926 592.015137,216.509857 
	C591.295593,219.969437 588.227112,221.158966 585.695007,218.898697 
	C581.327576,215.000015 577.367371,210.663544 575.792175,204.783890 
	C574.200684,198.843353 572.886047,197.884247 566.457581,198.119003 
	C565.353821,198.159317 564.156189,197.803162 563.127991,197.346329 
	C559.433594,195.705002 555.588623,196.294388 551.795166,196.516937 
	C549.868164,196.629959 548.042358,197.484100 548.387817,199.917603 
	C548.987549,204.142365 546.486450,204.127426 543.495911,203.841537 
	C538.367004,203.351212 533.355957,201.894073 528.142334,202.088562 
	C520.778076,202.363266 512.348022,209.270126 512.149048,215.272842 
	C511.937073,221.667862 509.532135,222.897202 503.980621,219.507645 
	C501.889069,218.230606 500.692780,216.295822 499.563507,214.220871 
	C497.732727,210.856964 495.873260,207.500610 493.839569,204.257919 
	C492.413025,201.983261 490.308624,200.439224 487.526215,201.761932 
	C484.794098,203.060730 483.891296,205.410843 484.599335,208.443420 
	C486.915863,218.365356 491.113373,227.268280 498.174561,234.763824 
	C502.903198,239.783279 508.449677,243.768265 514.023254,247.704575 
	C534.692932,262.302490 544.269775,282.406128 544.352173,307.483643 
	C544.396851,321.078278 542.067444,334.308075 539.046326,347.458588 
	C538.402039,350.262909 538.052979,352.243744 541.787842,352.864288 
	C545.097778,353.414246 548.471375,355.087036 549.556824,349.963470 
	C549.832031,348.664215 550.291992,347.404144 550.665955,346.125702 
	C559.940918,314.419861 579.682678,293.537903 612.537231,286.100098 
	C618.376343,284.778259 624.139526,283.106110 629.678223,280.746521 
	C641.172913,275.849640 648.266235,267.077332 652.232056,255.458954 
	C653.314270,252.288574 653.115723,250.168076 649.864563,247.966187 
	C638.207642,240.071457 636.213928,226.036316 644.852112,214.856964 
	C646.425903,212.820282 647.590332,210.742645 647.954590,208.177811 
	C649.634949,196.344437 657.745300,186.333618 656.906128,174.129745 
	C659.427612,173.541656 661.306274,175.630020 662.887329,174.051132 
	C664.928223,172.013077 667.093933,172.592712 669.377075,173.161942 
	C695.127441,179.582108 721.150635,183.827164 747.800476,183.829147 
	C754.413574,183.829636 760.633118,186.568008 766.397095,188.352875 
	C767.566467,190.849335 764.439453,191.454453 765.379700,193.360306 
	C772.765076,192.223801 780.655640,191.277969 786.448853,196.200699 
	C791.974121,200.895782 795.249390,207.769241 793.551453,215.970871 
	C797.814880,215.634567 800.320312,213.145691 802.600403,210.558121 
	C808.781433,203.543472 814.626282,196.319992 824.099365,193.221786 
	C829.275146,191.529022 829.508057,189.164032 825.678406,185.436676 
	C792.846558,153.482071 756.171631,126.849319 715.361572,105.980881 
	C669.117737,82.333824 620.262451,67.314957 568.637146,61.107468 
	C532.902466,56.810677 497.164429,56.743095 461.475769,60.564922 
	C427.790131,64.172256 394.923096,71.804070 362.990295,83.305771 
	C288.603790,110.098579 225.966583,154.088959 173.968063,213.281158 
	C142.535339,249.062424 117.418648,288.997803 98.335938,332.733887 
	C79.136215,376.738129 67.278656,422.635803 62.486797,470.312073 
	C60.239643,492.670013 59.573174,515.119019 61.047527,537.648071 
	C62.298801,556.768372 64.173889,575.780029 67.688408,594.586670 
	C76.713959,642.883423 92.767761,688.735107 116.235405,731.953186 
	C135.828781,768.036377 159.680267,801.014465 188.121689,830.641846 
	C198.424545,841.374329 211.679047,843.742249 225.723984,843.173462 
	C240.590302,842.571411 254.263458,836.993652 268.139069,832.348938 
	C280.793884,828.112854 293.628937,824.458679 307.009399,823.776062 
	C338.283112,822.180725 366.013855,831.796204 390.679138,850.868164 
	C407.729065,864.051697 422.544006,879.705017 438.643829,893.939575 
	C460.957977,913.668274 485.721344,929.341980 513.314026,940.559082 
	C537.112244,950.233643 561.920349,955.682434 587.463440,957.445679 
	C600.061523,958.315308 612.904968,959.320312 625.350769,956.833557 
	C648.599060,952.188599 670.575806,943.481323 692.190735,933.814392 
	C655.756287,942.813049 618.939148,946.422546 581.420837,943.388733 
	C548.360474,940.715454 486.512909,918.753235 478.095673,905.881714 
	C479.284698,905.228638 480.347534,905.841736 481.434174,906.195129 
	C493.104370,909.991028 505.211853,911.507507 517.345947,911.512451 
	C542.598999,911.522827 566.341003,905.069763 588.720825,893.326599 
	C605.844421,884.341370 620.564453,872.103333 635.260010,859.798645 
	C647.964478,849.161011 661.061462,839.203918 677.275635,834.365845 
	C690.261658,830.490967 702.893066,830.635376 714.869507,837.717224 
	C716.258667,838.538696 718.480164,839.058411 717.925293,841.587646 
	C716.168213,842.588562 714.283325,842.118530 712.492798,842.304932 
	C700.524780,843.550964 692.594482,855.064087 696.696594,865.529358 
	C699.162842,871.821228 704.494934,875.016174 710.669739,876.571411 
	C719.894897,878.894958 729.191345,877.821472 738.405090,876.152039 
	C765.351318,871.270020 789.743225,859.959534 813.079956,846.129211 
	C825.105957,839.002075 837.334473,832.101990 846.851013,821.485168 
	C879.582153,784.969666 906.089355,744.415955 926.080994,699.619812 
	C949.033752,648.188538 962.602478,594.373657 965.481628,538.143372 
	C967.548401,497.779236 964.563660,457.675903 955.661316,418.086792 
	C937.066345,335.394196 899.066650,263.019928 841.058655,201.188797 
	C839.973022,200.031677 839.114868,198.390015 837.137878,198.555420 
	C834.434448,201.926376 834.169006,202.062286 835.728943,205.108810 
	C837.175720,207.934372 836.725220,209.535019 834.093445,211.278442 
	C826.011230,216.632492 821.178589,229.087250 823.539062,238.477753 
	C824.285645,241.447800 823.363892,243.760666 821.720093,245.900375 
	C820.003113,248.135513 817.899414,250.070084 816.129028,252.268311 
	C806.515137,264.205658 803.507690,264.589996 812.064758,278.098663 
	C814.399231,281.784027 815.890259,285.874023 815.253967,290.434967 
	C815.012207,292.167725 814.533081,293.728882 812.795654,294.484680 
	C810.954163,295.285706 809.555847,294.283691 808.338257,293.096466 
	C804.831848,289.677338 802.084167,285.751099 800.576172,281.035919 
	C799.790649,278.579803 798.542175,275.461273 796.180542,275.394928 
	C790.435913,275.233521 785.008606,272.032349 779.158691,273.719238 
	C777.660095,274.151367 775.694031,274.179291 776.008850,276.713440 
	C776.459473,280.339386 773.833435,280.425232 771.453796,280.193665 
	C767.984741,279.856079 764.554321,279.137085 761.099731,278.633240 
	C753.451355,277.517731 743.725220,284.356873 743.309570,291.115448 
	C742.984924,296.394409 741.719360,297.123169 736.898438,294.887238 
	C734.661438,293.849792 733.262817,292.080353 732.121826,289.973022 
	C730.536865,287.045746 728.941284,284.114288 727.153259,281.310211 
	C725.963257,279.444000 724.074524,277.398773 721.841675,278.561554 
	C715.150208,282.046265 712.992249,277.463684 710.525208,272.883392 
	C707.647766,267.541138 704.595093,266.043396 698.746704,266.825531 
	C693.786072,267.488892 689.126099,266.508820 684.768860,264.131012 
	C680.678284,261.898743 676.764648,259.305359 672.554749,257.338440 
	C667.714111,255.076859 666.074707,255.897812 664.480530,260.860535 
	C661.329468,270.669861 655.702515,278.708069 647.711609,285.177582 
	C637.952576,293.078644 626.276489,296.509247 614.395508,299.193848 
	C584.153564,306.027283 569.096191,326.925995 561.744202,355.185333 
	C561.332886,356.766357 561.112793,358.288727 562.843079,359.062042 
	C569.789856,362.166595 576.546814,365.652588 582.828491,369.552032 
	C585.001526,367.770844 585.516785,365.762421 586.291260,363.964264 
	C597.688293,337.502747 616.310974,320.287872 645.660400,315.393158 
	C663.661194,312.391083 678.223999,303.795135 684.730286,285.222778 
	C686.075073,281.383972 689.293884,279.785248 693.181824,281.344910 
	C697.047974,282.895844 698.086243,286.148224 696.766907,290.013977 
	C693.407227,299.858795 687.801880,308.164917 679.694763,314.765350 
	C670.508789,322.244080 659.606079,325.693207 648.329346,328.269379 
	C640.048157,330.161194 631.773499,331.948334 624.386353,336.521851 
	C609.502258,345.736877 601.842529,360.133820 595.840759,375.772034 
	C595.403381,376.911621 595.080383,378.141815 596.000061,379.074493 
	C601.075195,384.221741 606.217163,389.303192 611.653259,394.723358 
	C613.529236,392.034698 614.947144,390.007141 616.360474,387.976410 
	C639.828796,354.255707 671.538086,338.554932 712.886841,343.487274 
	C728.754150,345.380066 744.170593,349.904724 760.127747,351.179535 
	C783.944763,353.082275 805.470154,347.616608 823.370178,331.105469 
	C839.455933,316.267700 848.600708,297.432526 854.181274,275.732544 
M408.724365,491.795715 
	C416.532990,516.340454 433.318726,534.366394 452.645386,549.983459 
	C473.848175,567.116516 493.190002,585.532166 505.643799,610.238220 
	C508.821350,616.541809 511.237854,623.166565 514.197693,630.253296 
	C514.856995,628.809570 515.261597,628.083313 515.531311,627.310059 
	C524.655701,601.151917 540.588684,579.738892 561.465698,561.867676 
	C573.225098,551.801392 585.712463,542.566162 596.150085,531.017822 
	C615.414307,509.703430 626.334290,485.516296 622.811096,456.004425 
	C619.150391,425.340790 604.466858,400.816467 579.343872,383.879120 
	C539.961060,357.328003 498.335541,355.782227 456.763794,379.027374 
	C419.347443,399.948975 395.328552,446.898438 408.724365,491.795715 
M530.662903,297.775208 
	C530.184998,293.801758 529.208313,289.952667 527.980652,286.143188 
	C523.366821,271.825623 512.872864,262.464233 500.960388,254.475418 
	C481.379669,241.344147 472.021820,222.553818 469.777435,199.645493 
	C469.159302,193.336105 466.075104,189.732071 459.890137,189.264999 
	C451.867065,188.659149 444.172394,186.742493 438.192139,181.481781 
	C432.373444,176.363144 422.383575,179.220581 418.818634,170.221329 
	C418.384521,172.094421 418.234253,173.578400 418.407349,175.023636 
	C420.545776,192.877655 425.530365,209.772461 434.656006,225.429306 
	C443.841156,241.188293 457.028137,253.026703 471.318878,263.789642 
	C487.605469,276.055695 499.108429,291.779114 506.558899,310.651855 
	C511.046356,322.019043 513.665649,333.833130 515.154846,345.899536 
	C515.532288,348.957764 516.823853,349.851166 519.605408,349.839752 
	C522.338623,349.828552 524.830566,350.147217 525.732910,346.444641 
	C529.562744,330.730225 532.719421,314.972260 530.662903,297.775208 
M330.616272,877.783142 
	C340.582275,872.991089 349.087891,877.164551 357.296539,882.334412 
	C365.799988,887.689941 372.779877,894.937927 380.268951,901.537354 
	C400.998871,919.804688 422.951874,936.173279 449.044434,946.137268 
	C453.680420,947.907593 458.322174,949.870789 464.419739,950.354309 
	C454.840729,944.207336 446.007690,938.900513 437.554840,933.044861 
	C415.147858,917.522644 395.524353,898.758667 376.175934,879.690674 
	C367.635590,871.274048 358.072235,864.472717 346.116547,861.785278 
	C331.027069,858.393494 315.314514,866.040039 310.557831,879.008179 
	C304.603546,895.241272 313.348724,922.067078 328.230408,931.078552 
	C336.136139,935.865784 344.929718,939.114624 354.964386,942.419617 
	C350.603180,938.249695 347.062042,935.042542 343.723175,931.637024 
	C334.666992,922.399841 326.658691,912.452393 323.218903,899.618103 
	C320.485718,889.420410 322.388397,883.461975 330.616272,877.783142 
M594.161682,924.011902 
	C598.612244,925.470581 603.137268,924.816162 607.591919,924.247498 
	C625.151611,922.006165 640.882996,915.130432 655.052124,904.706299 
	C658.272949,902.336853 660.185913,902.636597 662.282654,905.773987 
	C663.955261,908.276794 666.183350,910.292786 668.623535,912.083679 
	C683.515198,923.013428 700.310730,924.572144 717.625305,920.957397 
	C725.017578,919.414124 731.330078,914.516052 737.462891,909.891235 
	C726.054138,910.914246 714.918762,912.729675 703.566833,911.362793 
	C690.346008,909.770996 678.779968,905.228333 670.426086,894.261780 
	C667.259338,890.104675 665.813599,885.206665 664.158630,879.687805 
	C644.178040,900.156738 621.666687,915.631409 594.161682,924.011902 
M472.488373,180.200729 
	C476.748657,181.362244 480.518158,180.552383 483.051788,176.806534 
	C485.239288,173.572449 485.564056,169.933197 483.421661,166.470993 
	C481.267548,162.989822 477.919373,161.776474 473.981750,162.334167 
	C469.946442,162.905685 467.230743,165.328522 466.462708,169.267227 
	C465.541473,173.991196 467.211487,177.757416 472.488373,180.200729 
M658.166992,220.649765 
	C652.746399,224.279800 651.291565,228.738754 653.940735,233.603073 
	C656.234863,237.815399 661.561951,239.624634 665.862061,237.651932 
	C670.215271,235.654892 672.328918,231.032196 670.910645,226.610550 
	C669.158264,221.147644 664.902771,218.951416 658.166992,220.649765 
M120.500183,402.421112 
	C118.740250,398.306519 115.562714,396.115967 111.154266,396.454651 
	C106.965622,396.776398 104.282753,399.423950 102.911697,403.354584 
	C101.672928,406.905945 102.864708,409.915894 105.357300,412.385559 
	C108.412003,415.412109 112.220978,415.720367 115.942787,414.067474 
	C120.643448,411.979858 121.450340,407.853912 120.500183,402.421112 
M322.576385,161.139603 
	C319.078979,167.965652 321.785065,174.814224 328.340424,175.727264 
	C332.907867,176.363434 337.071838,173.973892 338.684875,169.818497 
	C340.369110,165.479782 338.905823,161.995087 335.532104,159.275269 
	C331.747650,156.224274 327.689819,156.755478 322.576385,161.139603 
M225.608612,408.864075 
	C231.780151,408.330750 235.514496,404.984314 235.571716,399.935883 
	C235.623337,395.382874 231.028839,390.700989 226.282776,390.470337 
	C221.958206,390.260162 217.917435,393.644745 217.181046,398.093964 
	C216.246078,403.743011 218.772842,407.291016 225.608612,408.864075 
M160.320328,278.399353 
	C161.622482,284.983612 165.904907,288.552917 171.044083,287.337372 
	C175.914825,286.185272 179.090607,281.967651 178.678589,277.198334 
	C178.278305,272.564972 174.478348,268.953522 169.793320,268.753845 
	C164.968491,268.548157 161.529205,271.771606 160.320328,278.399353 
M414.002289,138.178894 
	C406.300262,137.905441 401.160950,142.753479 402.748169,148.795166 
	C403.976562,153.470932 407.439819,156.138382 412.188080,155.958786 
	C416.935303,155.779251 419.906708,153.359451 420.991760,148.705154 
	C422.042053,144.199936 419.955658,140.724197 414.002289,138.178894 
M552.022400,115.225784 
	C552.514099,114.015442 554.252991,113.201248 553.379639,111.429886 
	C547.511353,113.853508 545.433716,125.533195 549.827209,130.941803 
	C551.900513,129.360306 551.690735,127.329109 551.143616,125.146553 
	C550.360474,122.022614 550.335754,118.910347 552.022400,115.225784 
z"/>
<path fill="#000000" opacity="1.000000" stroke="none" 
	d="
M477.626038,879.541077 
	C474.453979,878.339966 471.619720,877.358154 468.876007,876.167603 
	C458.471924,871.653259 453.478821,864.190369 453.717682,852.344482 
	C454.234833,826.694580 454.125610,801.023499 453.753815,775.368530 
	C453.601654,764.869080 457.828583,758.131897 467.158264,753.660095 
	C477.851990,748.534546 489.176422,746.047852 500.777252,744.902527 
	C517.802368,743.221680 534.671875,744.446472 551.086975,749.666077 
	C554.089539,750.620850 557.000427,751.903320 559.879883,753.198425 
	C569.780273,757.651550 574.758667,764.547913 574.453003,776.210999 
	C573.776733,802.020142 573.911194,827.866333 574.426270,853.683228 
	C574.644653,864.630005 569.727295,871.283936 560.567871,875.743103 
	C550.875427,880.461853 540.503357,882.818298 529.862488,883.941772 
	C512.324341,885.793518 494.970612,884.971436 477.626038,879.541077 
M491.669495,853.204285 
	C483.169708,851.796326 475.106354,848.848267 467.088226,845.581787 
	C464.437103,858.164001 466.324951,861.924805 477.098206,866.384827 
	C477.558350,866.575378 478.052856,866.683472 478.511169,866.877686 
	C488.344788,871.044128 498.835449,871.921814 509.268829,872.327332 
	C523.611816,872.884766 537.873413,871.660828 551.420227,866.387329 
	C561.758179,862.363037 564.004700,857.228088 560.868347,845.798584 
	C555.412842,847.152466 550.512146,850.072327 545.021240,851.365601 
	C527.633850,855.460754 510.149139,855.745117 491.669495,853.204285 
M526.634949,794.332886 
	C506.047333,796.447693 486.050415,794.109314 466.865021,785.689331 
	C464.909088,799.700012 466.387085,802.128662 478.742493,806.991272 
	C487.043976,810.258362 495.730469,811.595581 504.517120,812.259460 
	C521.277588,813.525818 537.769714,812.217590 553.373169,805.395874 
	C562.179077,801.545959 564.327026,795.326111 560.575317,785.738953 
	C550.154114,790.837402 539.060486,793.411499 526.634949,794.332886 
M514.470520,842.654236 
	C527.630005,842.070068 540.757996,841.138550 552.934448,835.484436 
	C562.342163,831.115845 564.078613,826.551208 560.805481,816.149292 
	C529.508850,828.565613 498.160126,828.491821 466.858215,815.963135 
	C464.858612,829.442749 466.278168,832.105042 478.289886,836.826172 
	C489.602264,841.272461 501.543549,842.162720 514.470520,842.654236 
z"/>
<path fill="#000000" opacity="1.000000" stroke="none" 
	d="
M314.739807,706.023071 
	C307.653534,708.945312 300.542542,709.911804 293.372955,709.995605 
	C277.042511,710.186401 260.707275,709.971008 244.376999,710.169739 
	C239.933609,710.223816 238.692032,708.540771 238.710541,704.277710 
	C238.853073,671.446472 238.791733,638.614380 238.822876,605.782593 
	C238.829239,599.067017 238.946777,598.869446 245.423645,598.964905 
	C262.908844,599.222473 280.407745,598.219910 297.881287,599.645508 
	C315.831360,601.109924 328.006012,613.531677 327.228638,629.910767 
	C326.824921,638.417419 323.831085,645.809631 316.084473,651.494202 
	C329.838409,659.931946 333.352203,672.332947 330.983185,686.692322 
	C329.464691,695.896423 323.632721,702.156494 314.739807,706.023071 
M307.639771,678.956360 
	C307.778137,669.069397 304.124420,663.913757 295.508392,663.440369 
	C285.728699,662.903198 275.902405,663.227234 266.096649,663.142578 
	C263.356262,663.118958 262.260681,664.392822 262.301544,667.116943 
	C262.396301,673.432861 262.401459,679.752258 262.303436,686.068054 
	C262.259033,688.928833 263.625763,689.868347 266.263153,689.841187 
	C275.737579,689.743591 285.228546,690.026306 294.681946,689.546875 
	C300.844055,689.234436 305.920105,686.509277 307.639771,678.956360 
M300.095764,622.371460 
	C298.473297,621.537476 296.932312,620.255920 295.214905,619.943176 
	C285.143860,618.109314 274.973175,619.014893 264.834930,619.211731 
	C262.982849,619.247742 262.358765,620.652344 262.357056,622.345947 
	C262.351074,628.344604 262.360382,634.343201 262.342926,640.341858 
	C262.337280,642.289856 263.037018,643.647034 265.188812,643.601074 
	C274.499817,643.402222 283.907623,644.744507 293.103333,642.955200 
	C303.544067,640.923645 306.793152,631.710999 300.095764,622.371460 
z"/>
<path fill="#000000" opacity="1.000000" stroke="none" 
	d="
M217.195282,625.965210 
	C227.606979,648.469055 226.981171,670.215271 212.533920,690.097717 
	C198.861389,708.913879 179.164673,715.062317 156.825134,710.606079 
	C134.011688,706.055359 120.042793,691.207764 114.880150,668.763672 
	C110.162643,648.254761 114.237648,629.487854 128.738052,613.559814 
	C150.585541,589.561279 199.697845,591.199646 217.195282,625.965210 
M199.682510,655.387939 
	C200.091980,648.578918 198.628860,642.112366 195.708618,636.028198 
	C186.455307,616.749146 161.522141,612.765198 146.710876,628.126160 
	C135.126297,640.140686 133.919739,662.464050 144.053970,677.282532 
	C155.298462,693.724487 179.348511,694.608948 191.759476,678.997742 
	C197.025131,672.374329 199.331940,664.671814 199.682510,655.387939 
z"/>
<path fill="#000000" opacity="1.000000" stroke="none" 
	d="
M864.577148,600.078491 
	C871.846191,617.095520 878.834656,633.823669 885.784058,650.568054 
	C893.245239,668.545654 900.678833,686.534668 908.093445,704.531555 
	C908.703552,706.012390 909.885132,707.415283 908.875977,709.934143 
	C901.747864,709.934143 894.340820,710.025879 886.938599,709.876404 
	C884.811890,709.833435 884.126770,707.825073 883.440308,706.082214 
	C881.367432,700.819153 879.130432,695.616455 877.212158,690.298340 
	C876.152527,687.360474 874.499268,686.177673 871.314270,686.213684 
	C858.495300,686.358887 845.672913,686.349426 832.853577,686.224609 
	C829.902039,686.195862 828.285583,687.190857 827.319824,689.999268 
	C825.481140,695.345825 823.380371,700.602722 821.363342,705.887329 
	C820.717102,707.580505 820.261475,709.802673 818.114197,709.911682 
	C810.881104,710.279053 803.635803,710.321533 796.640686,709.750427 
	C795.795959,707.261169 796.778748,705.797791 797.383240,704.311035 
	C810.981445,670.866699 824.676392,637.461243 838.129211,603.958679 
	C839.723633,599.987854 841.931580,598.546326 845.958618,598.893921 
	C852.050964,599.419861 858.243652,597.996643 864.577148,600.078491 
M842.881592,665.792908 
	C850.813599,665.792908 858.745667,665.792908 867.728394,665.792908 
	C862.465637,652.054626 857.572449,639.281128 852.220337,625.309692 
	C846.988525,639.286743 842.200562,652.078125 837.486389,664.672180 
	C839.324707,666.002869 840.701477,665.672302 842.881592,665.792908 
z"/>
<path fill="#000000" opacity="1.000000" stroke="none" 
	d="
M693.935242,632.000000 
	C693.695068,644.816101 694.159424,657.130615 693.409546,669.453918 
	C691.706482,697.440674 671.634521,713.580322 644.127625,711.731262 
	C627.573059,710.618347 614.786621,703.916809 606.840698,688.971069 
	C601.901306,679.680359 600.948914,669.510315 601.246582,659.362549 
	C601.774292,641.373596 601.508179,623.391296 601.468323,605.409668 
	C601.457214,600.379517 602.912903,598.410339 607.986023,598.863708 
	C611.787170,599.203613 615.650940,599.110107 619.470642,598.905823 
	C623.851807,598.671448 625.264282,600.605042 625.235291,604.845581 
	C625.105347,623.832764 625.198608,642.821411 625.209106,661.809570 
	C625.211121,665.473450 625.430542,669.088196 626.243591,672.703186 
	C628.953003,684.750305 636.382263,690.354187 649.363770,689.913330 
	C660.320068,689.541260 667.830750,682.402771 669.696655,670.986755 
	C671.078125,662.534546 670.597412,654.050415 670.643921,645.573975 
	C670.718872,631.916260 670.776611,618.256165 670.590027,604.600586 
	C670.535400,600.604736 671.694824,598.716797 675.912476,598.914734 
	C680.233398,599.117493 684.577271,599.089844 688.900391,598.907898 
	C692.652588,598.750000 693.908386,600.541260 693.889709,604.017334 
	C693.840454,613.177917 693.911499,622.339050 693.935242,632.000000 
z"/>
<path fill="#000000" opacity="1.000000" stroke="none" 
	d="
M708.280151,696.377808 
	C708.980103,689.605530 712.867310,684.491150 715.844788,679.010437 
	C717.221619,676.476074 719.024963,678.522888 720.363770,679.574951 
	C727.158630,684.914673 734.669006,688.745483 743.233093,690.160034 
	C749.338135,691.168396 755.491211,691.452820 761.462402,689.250610 
	C766.081848,687.547058 769.186157,684.340820 769.322510,679.325684 
	C769.448120,674.700867 766.605286,671.646240 762.530029,669.708618 
	C756.016357,666.611694 748.920166,665.375854 742.085571,663.306458 
	C736.668213,661.666077 731.351135,659.841187 726.208557,657.400574 
	C704.243713,646.976318 705.730469,616.662659 724.253845,604.723572 
	C740.166138,594.467468 771.429810,595.487976 786.535522,606.936584 
	C788.886780,608.718628 789.688721,610.441406 788.239563,613.252075 
	C785.749512,618.081787 783.522400,623.047058 780.918640,628.514709 
	C774.242126,623.662170 767.584290,620.018616 759.877258,618.842773 
	C754.408813,618.008484 748.930176,617.657898 743.560852,619.325684 
	C738.902832,620.772583 734.967346,623.089233 734.318359,628.592468 
	C733.640198,634.343750 737.423828,637.052734 741.794373,639.142578 
	C748.447693,642.324219 755.810425,643.280762 762.767090,645.526489 
	C766.402832,646.700134 770.121399,647.698669 773.619568,649.202209 
	C786.102295,654.567383 793.320007,663.813721 793.211731,677.733215 
	C793.102295,691.808960 786.126343,701.661682 773.482605,707.533752 
	C754.092590,716.538818 723.490479,711.399597 708.280151,696.377808 
z"/>
<path fill="#000000" opacity="1.000000" stroke="none" 
	d="
M416.203064,662.036377 
	C411.536041,660.530640 407.465485,658.701172 403.464386,656.599854 
	C383.482574,646.105286 385.251038,618.398254 400.316071,606.721924 
	C406.422302,601.989136 413.317169,599.200439 420.848358,598.251404 
	C436.261993,596.309204 451.040497,598.063354 464.592804,606.487244 
	C467.821869,608.494324 468.472504,610.482727 466.654388,613.812256 
	C464.194275,618.317505 462.082916,623.013062 459.920197,627.426514 
	C457.826080,628.031128 456.796265,626.714233 455.628967,625.890320 
	C446.789978,619.650818 436.923004,617.450500 426.265717,618.358276 
	C423.244293,618.615723 420.370758,619.448853 417.811768,621.132751 
	C410.934570,625.658264 410.985748,633.372864 417.956024,637.730957 
	C421.954193,640.230835 426.436920,641.543945 430.953247,642.743835 
	C438.506927,644.750732 446.188141,646.346924 453.334869,649.671692 
	C465.377747,655.274231 471.889465,664.543640 471.733398,677.991455 
	C471.579834,691.228027 465.312561,700.887085 453.611481,706.820190 
	C435.220123,716.145630 404.481750,712.112183 388.916718,698.583191 
	C387.502869,697.354370 385.762115,696.052673 386.721954,694.019897 
	C389.326294,688.504211 392.203796,683.117615 394.981293,677.663574 
	C399.121277,678.930664 401.622375,681.489380 404.546997,683.314026 
	C414.542389,689.549927 425.300537,692.325928 436.971069,690.066589 
	C444.029541,688.700134 447.384979,685.232666 447.769196,680.047852 
	C448.172150,674.610291 445.643127,671.095276 438.578979,668.685608 
	C431.346497,666.218445 423.921295,664.316223 416.203064,662.036377 
z"/>
<path fill="#000000" opacity="1.000000" stroke="none" 
	d="
M371.322754,626.000122 
	C371.320160,652.329651 371.211365,678.159912 371.407745,703.987915 
	C371.444641,708.842957 369.860748,710.587952 365.090912,710.165710 
	C361.453217,709.843567 357.764313,710.105347 354.098206,710.097412 
	C347.219574,710.082458 346.973877,709.867493 346.969025,703.185303 
	C346.953522,681.855164 346.945892,660.525024 346.963562,639.194885 
	C346.973083,627.696838 347.143036,616.197754 347.028320,604.701294 
	C346.985535,600.413696 348.619293,598.665588 352.941315,598.905701 
	C357.260071,599.145691 361.612366,599.107422 365.933746,598.880981 
	C370.120392,598.661499 371.495972,600.477356 371.375366,604.504883 
	C371.165985,611.497498 371.320343,618.501099 371.322754,626.000122 
z"/>
<path fill="#000000" opacity="1.000000" stroke="none" 
	d="
M655.650513,764.866577 
	C655.654541,755.386169 655.603638,746.387634 655.685852,737.390320 
	C655.731201,732.427002 658.245300,729.502502 662.257141,729.797119 
	C666.870239,730.135986 668.336121,733.233643 668.331177,737.406921 
	C668.317505,748.904358 668.511414,760.405884 668.270081,771.898376 
	C667.875916,790.673096 651.260132,806.940247 632.287354,807.305115 
	C625.033936,807.444702 617.775635,807.327881 610.110291,807.327881 
	C611.624146,810.576782 614.205566,811.678894 616.028503,813.532410 
	C619.175598,816.732361 619.672180,820.583679 617.260498,823.355713 
	C614.936523,826.026855 610.845459,826.125244 607.442139,823.202393 
	C600.997437,817.667542 594.616638,812.049561 588.399048,806.262329 
	C584.591125,802.717896 584.460022,798.918396 588.257324,795.418701 
	C594.745483,789.438965 601.489502,783.727051 608.288635,778.099060 
	C611.209106,775.681580 614.613281,775.599792 617.208252,778.636963 
	C619.751770,781.613953 619.389954,784.763977 616.461304,787.485413 
	C614.315674,789.479309 612.159546,791.461914 609.436768,793.977478 
	C617.213623,793.977478 624.171448,794.176636 631.114014,793.935547 
	C645.147095,793.448181 655.012756,783.441528 655.629517,769.347717 
	C655.687744,768.017029 655.646240,766.682068 655.650513,764.866577 
z"/>
<path fill="#000000" opacity="1.000000" stroke="none" 
	d="
M414.264496,825.217102 
	C408.172852,822.032349 407.441803,818.228088 411.765930,813.764709 
	C413.606506,811.864807 415.623047,810.135315 418.611755,807.346680 
	C410.794769,807.346680 404.120972,807.393799 397.448090,807.335999 
	C386.586548,807.241943 377.335022,803.367432 369.909363,795.357605 
	C363.177948,788.096741 359.577576,779.595703 359.635834,769.598816 
	C359.697906,758.942810 359.613007,748.285950 359.674530,737.630005 
	C359.705261,732.309204 361.741394,729.830750 365.887238,729.722534 
	C370.226471,729.609314 372.298431,732.154968 372.321106,737.826965 
	C372.361053,747.817078 372.294312,757.807739 372.348846,767.797729 
	C372.430847,782.817139 382.954773,793.605347 397.936462,793.949463 
	C404.414368,794.098267 410.898499,793.974487 418.530457,793.974487 
	C415.901489,791.697998 413.824677,790.036621 411.906525,788.208740 
	C408.418060,784.884705 408.037964,781.531311 410.665833,778.552307 
	C413.091980,775.802002 417.019562,775.745911 420.428162,778.671326 
	C426.743744,784.091858 433.031982,789.549561 439.181793,795.156128 
	C443.577271,799.163269 443.628937,802.481567 439.226501,806.571960 
	C433.010681,812.347473 426.548492,817.857605 420.199524,823.490051 
	C418.609222,824.900818 416.765961,825.464661 414.264496,825.217102 
z"/>
<path fill="#000000" opacity="1.000000" stroke="none" 
	d="
M560.000366,669.248169 
	C554.509094,669.244812 549.515198,669.144226 544.527161,669.271729 
	C541.251709,669.355408 539.518799,668.276123 539.659241,664.712646 
	C539.816345,660.725647 539.793152,656.725342 539.676758,652.735779 
	C539.588196,649.700806 540.968140,648.639343 543.882812,648.656921 
	C556.194458,648.731323 568.506836,648.712280 580.818787,648.681458 
	C583.209717,648.675476 584.571594,649.404175 584.492126,652.113586 
	C584.360474,656.602112 584.329041,661.099731 584.458557,665.587646 
	C584.543945,668.546143 583.058838,669.277527 580.465454,669.252319 
	C573.811035,669.187561 567.155334,669.241333 560.000366,669.248169 
z"/>
<path fill="#000000" opacity="1.000000" stroke="none" 
	d="
M518.148499,577.387146 
	C515.905212,577.643127 514.081482,578.021973 512.268188,577.976746 
	C505.604645,577.810669 504.893219,577.019714 504.955444,570.440918 
	C505.041351,561.356079 500.127930,556.905273 491.082336,558.015015 
	C487.705994,558.429260 484.421204,558.295593 481.240845,557.099121 
	C479.017090,556.262573 477.416931,554.760803 478.187988,552.167847 
	C478.892456,549.798767 480.900177,549.510132 483.063934,549.834595 
	C484.832062,550.099731 486.551575,551.112488 488.812073,550.034363 
	C485.317200,545.269836 481.257263,541.846375 475.156036,541.473877 
	C473.342529,541.363159 471.494354,541.397095 469.828491,540.394226 
	C468.059418,539.329285 467.158356,537.872803 467.634186,535.817322 
	C468.139679,533.633606 469.716919,532.969116 471.794006,533.200989 
	C473.381989,533.378235 475.277740,534.378601 476.271332,532.392273 
	C477.265503,530.404785 475.653107,528.936768 474.576874,527.513367 
	C472.941711,525.350708 471.608948,523.040100 474.356537,521.027771 
	C476.939911,519.135803 479.081696,520.931152 480.887299,522.783508 
	C483.281189,525.239319 484.346985,528.384155 485.422150,531.570862 
	C486.553986,534.925720 487.583038,538.559021 491.693054,539.534851 
	C493.121613,538.022461 492.225494,536.759766 491.980499,535.515686 
	C491.573456,533.448425 492.168274,531.820618 494.203552,531.076843 
	C496.343842,530.294556 497.723083,531.585327 498.712463,533.249451 
	C500.551544,536.342651 500.733704,539.918091 501.238647,543.342224 
	C501.689514,546.399719 503.173645,548.603943 505.536011,550.346741 
	C506.591766,551.125610 507.772919,552.091370 509.149597,551.151550 
	C510.347198,550.333984 510.721497,548.965332 510.472351,547.590698 
	C509.908081,544.477112 509.258484,541.376282 507.469025,538.661621 
	C503.222412,532.219421 498.572388,526.215332 491.655243,522.308350 
	C486.619110,519.463745 482.517334,515.682983 480.558228,509.956512 
	C479.740723,507.567017 479.880524,505.630737 482.266632,504.451569 
	C484.745941,503.226379 486.364441,504.546631 487.573364,506.644165 
	C488.790924,508.756622 489.574921,511.274780 492.603577,511.998291 
	C494.574646,509.863037 493.502960,507.272064 493.666321,504.926514 
	C493.817719,502.752563 494.314667,500.829376 496.827423,500.573242 
	C499.448700,500.306000 500.800690,501.888519 501.272675,504.316406 
	C501.846313,507.267212 502.030396,510.217194 501.893097,513.251526 
	C501.753998,516.326050 501.916351,519.577454 505.717560,521.652649 
	C509.106964,514.474915 509.548645,507.484772 507.037994,500.268738 
	C506.545563,498.853333 506.032043,497.442047 505.451019,496.061371 
	C504.364594,493.479614 504.888000,491.385681 507.511353,490.278809 
	C510.005249,489.226532 511.871094,490.654510 512.784180,492.754944 
	C514.103455,495.789856 514.948303,499.029999 516.019470,502.174469 
	C516.278015,502.933472 516.363403,503.847778 517.496399,504.142059 
	C519.961792,503.396912 520.010681,500.965973 520.694702,499.032074 
	C521.622192,496.409790 523.361023,495.118500 526.042908,495.865143 
	C528.673157,496.597412 528.835327,498.796875 528.536133,501.128754 
	C527.878235,506.257477 525.050354,510.246033 521.194641,513.219788 
	C514.485718,518.393860 514.010254,527.329590 517.401917,535.046143 
	C517.952576,536.299011 518.686707,537.477295 520.229065,537.545654 
	C521.950073,537.622009 522.958496,536.461426 523.707214,535.107788 
	C525.271423,532.279724 524.805359,529.297607 524.201660,526.342712 
	C523.560486,523.204651 523.164490,520.076721 524.483276,517.025208 
	C525.259338,515.229553 526.490601,513.839111 528.683105,514.258179 
	C531.009338,514.702820 531.963440,516.396790 531.966797,518.627869 
	C531.969910,520.684204 530.590637,522.895508 532.976929,524.910461 
	C536.629639,521.867126 536.520996,517.327759 537.602600,513.318726 
	C537.902466,512.207581 537.771973,510.984222 538.036926,509.858978 
	C538.577881,507.561523 539.834473,505.704376 542.435608,505.930145 
	C545.222656,506.172058 546.492432,508.138245 546.276001,510.828461 
	C545.594055,519.304810 543.357117,527.223083 537.284302,533.553955 
	C533.364075,537.640747 529.136169,541.442383 525.358154,545.651855 
	C523.092407,548.176331 519.836731,552.168823 523.345886,554.569519 
	C526.365723,556.635437 528.901855,552.229248 530.424805,549.370544 
	C532.733093,545.037598 535.654724,541.285583 539.345337,538.073181 
	C542.322754,535.481506 543.905579,531.984253 545.408875,528.431702 
	C546.248230,526.448242 547.068787,524.384644 548.326172,522.671387 
	C549.484009,521.093811 551.366028,520.625366 553.236633,521.764160 
	C555.063660,522.876404 555.525024,524.482239 554.776611,526.492126 
	C553.869751,528.927673 551.811218,530.948181 552.021423,533.762146 
	C553.291748,534.974731 554.303040,533.882935 555.295593,533.519165 
	C557.801514,532.600586 559.639832,533.420715 560.638306,535.711914 
	C561.753845,538.271729 560.136902,540.026428 558.062256,540.891357 
	C554.231995,542.488159 550.223877,543.653320 546.315125,545.068298 
	C542.856506,546.320312 540.365784,548.495361 539.541382,552.148193 
	C541.203857,553.798035 542.654541,552.796753 543.934875,552.314270 
	C546.139893,551.483215 548.008728,551.652466 548.974915,553.904480 
	C549.954224,556.187073 549.112854,558.145203 546.999390,559.474854 
	C543.459045,561.702148 539.408875,561.826904 535.439209,562.102417 
	C526.199341,562.743835 523.428345,565.015747 521.345703,574.249695 
	C520.965698,575.934448 520.242432,576.964783 518.148499,577.387146 
z"/>
<path fill="#000000" opacity="1.000000" stroke="none" 
	d="
M463.396820,433.204651 
	C472.437500,437.806274 481.956635,441.136566 489.598602,446.939117 
	C505.141571,458.740845 504.287048,461.787567 489.116608,473.977875 
	C488.730011,474.288513 488.295197,474.558990 487.845734,474.768646 
	C479.479523,478.671967 470.540710,481.332581 462.752594,486.516998 
	C461.450836,487.383575 459.595306,487.566589 457.959961,487.754700 
	C453.822052,488.230682 452.033264,486.501312 453.260132,482.656708 
	C454.373688,479.167145 453.507812,477.629730 450.151917,476.359253 
	C444.052124,474.050110 432.762115,473.765350 426.647644,476.141754 
	C424.693695,476.901154 422.464722,478.271179 420.586884,476.405487 
	C419.012390,474.841187 420.222260,472.730011 421.007507,471.282867 
	C424.998840,463.927094 424.601685,456.792236 420.906067,449.462372 
	C420.040955,447.746582 418.484650,445.164642 420.774323,443.539062 
	C422.700745,442.171478 424.954468,443.633972 426.866364,444.569519 
	C430.763458,446.476440 434.088470,449.232117 437.206512,452.427917 
	C441.821686,449.155518 445.880157,445.684631 450.878113,443.688995 
	C452.799408,442.921844 452.690491,441.256714 452.359283,439.453125 
	C450.971588,431.896362 452.100861,430.825317 459.607391,432.341003 
	C460.748199,432.571381 461.886383,432.814758 463.396820,433.204651 
M487.092682,456.028992 
	C485.830841,453.446350 484.081909,453.031372 482.106628,455.155182 
	C480.913971,456.437500 481.036896,458.148346 482.531799,459.010620 
	C485.002899,460.435944 486.586304,459.340607 487.092682,456.028992 
z"/>
<path fill="#000000" opacity="1.000000" stroke="none" 
	d="
M523.279785,473.391724 
	C518.796387,473.639526 514.708862,473.922241 510.586395,474.207367 
	C510.785645,468.656586 514.045898,464.575897 520.317810,462.986786 
	C523.448730,462.193481 524.653931,460.582733 525.474121,457.822784 
	C529.494690,444.293365 537.311462,433.705719 550.018188,427.151550 
	C554.021057,425.086823 554.475586,422.197845 552.957458,418.454803 
	C552.347839,416.951691 551.166870,415.598633 551.809692,413.227814 
	C556.379761,411.690002 560.703491,413.275604 563.917480,416.270111 
	C569.131775,421.128357 575.191956,423.408295 581.912781,425.046356 
	C588.289612,426.600647 593.946289,429.884766 598.412109,434.885284 
	C601.117615,437.914734 603.091614,441.240204 603.536377,445.461517 
	C603.949280,449.380737 604.191406,453.393005 606.913452,456.745697 
	C608.029846,458.120636 608.696777,460.064972 607.005493,461.742340 
	C605.413574,463.321320 603.592957,462.926605 601.926086,462.031342 
	C597.533691,459.672211 593.305359,457.035400 588.586670,455.274933 
	C585.233032,454.023743 582.551636,454.058655 579.337036,456.214264 
	C574.460510,459.484222 568.943542,460.761017 563.118469,458.146515 
	C563.694519,454.338715 568.261292,454.098816 568.281799,450.303314 
	C565.209045,448.358185 561.719604,448.891083 558.354309,449.200958 
	C549.377747,450.027557 541.784546,453.768250 535.603577,460.377808 
	C533.025452,463.134766 532.438721,465.498077 534.921204,469.049591 
	C537.646362,472.948242 538.464905,477.615814 534.579163,482.076752 
	C530.727783,479.260193 528.036743,475.247375 523.279785,473.391724 
z"/>
<path fill="#000000" opacity="1.000000" stroke="none" 
	d="
M514.078735,422.372070 
	C505.350739,425.095062 502.491669,425.364532 498.895386,423.859833 
	C498.469604,421.785126 500.253021,420.604187 500.953247,418.988892 
	C502.273224,415.944000 502.138824,413.029022 499.824127,410.637451 
	C497.285309,408.014313 495.767853,411.259796 493.865448,412.064758 
	C491.809143,412.934875 490.075378,414.931183 486.725555,413.392120 
	C489.451141,406.755035 489.667755,399.880341 486.162567,392.885590 
	C491.669922,391.797577 494.342957,395.943359 498.303955,397.423004 
	C504.322235,390.920898 498.301880,386.697174 495.144989,381.867157 
	C497.990082,379.848572 500.934509,380.494598 503.530945,380.799438 
	C516.434753,382.314514 526.798096,388.162323 534.084290,399.205933 
	C536.285034,402.541595 536.085388,405.192078 533.526917,408.140594 
	C528.202881,414.276306 522.092102,419.275848 514.078735,422.372070 
z"/>
<path fill="#000000" opacity="1.000000" stroke="none" 
	d="
M571.675537,488.594177 
	C577.380371,484.882355 582.726013,484.638184 586.731262,487.976288 
	C590.315918,490.963837 591.909058,494.839966 590.623535,499.536255 
	C588.787598,506.243530 582.169556,509.837952 575.892944,507.595245 
	C569.251892,505.222412 566.412598,498.271637 569.482178,491.763031 
	C569.970886,490.726929 570.747559,489.826599 571.675537,488.594177 
z"/>
</svg>